# File created by Blade
# Date/Time:  Thu Jan 22 16:31:11 2015
# Frame Rate: 120.000 fps
#------------------------------------------------------
:FULLY-SPECIFIED
:DEGREES
1117
root 2.737754 37.285789 2.810499 -5.476042 -3.035831 3.241250
RightUpLeg 15.431893 -0.427932 -4.528928
RightLeg -7.215824 -0.000000 0.000000
RightFoot -12.231683 -15.300175 18.956497
RightToeBase 15.585335 -0.000000 -0.000000
LeftUpLeg 12.273325 -4.901978 -3.726187
LeftLeg -1.698300 -0.000000 0.000000
LeftFoot -9.684065 15.359339 -16.843898
LeftToeBase 9.826436 -0.000000 -0.000000
Spine 10.612156 -4.474584 -5.369275
RightShoulder -5.556158 -12.741347 -27.579619
RightArm 9.779768 26.718685 31.251184
RightForeArm 12.928646 -0.000000 15.367737
RightHand 2.603671 -0.000000 -7.687522
RightHandThumb1 -24.326973 -0.000000 -32.862282
LeftShoulder -25.707224 30.952760 15.829876
LeftArm 48.878815 -50.483110 -57.351881
LeftForeArm 36.679318 0.000000 9.185129
LeftHand -22.415323 -0.000000 4.222376
LeftHandThumb1 -26.253704 0.000000 33.147579
Head -7.050984 12.379142 1.184281
1118
root 2.718052 37.292703 2.810421 -5.386345 -3.086478 3.196138
RightUpLeg 15.210635 -0.251965 -4.413848
RightLeg -6.990039 -0.000000 0.000000
RightFoot -12.217176 -15.457739 18.812378
RightToeBase 15.346384 -0.000000 -0.000000
LeftUpLeg 12.141622 -4.721076 -3.601598
LeftLeg -1.611458 -0.000000 0.000000
LeftFoot -9.656992 15.183207 -16.881433
LeftToeBase 9.790975 -0.000000 -0.000000
Spine 10.487528 -4.449159 -5.153694
RightShoulder -5.619579 -12.621690 -27.662089
RightArm 9.687970 26.945515 31.257344
RightForeArm 12.696467 -0.000000 15.353409
RightHand 2.604316 -0.000000 -7.873555
RightHandThumb1 -24.326973 -0.000000 -32.862282
LeftShoulder -25.761414 30.956972 15.753411
LeftArm 48.989983 -50.576014 -57.527751
LeftForeArm 36.551384 -0.000000 8.742214
LeftHand -22.548453 -0.000000 4.361061
LeftHandThumb1 -26.253704 0.000000 33.147579
Head -7.026661 12.532381 1.105153
1119
root 2.700064 37.301312 2.810370 -5.342938 -3.199703 3.127906
RightUpLeg 15.041602 0.028157 -4.269382
RightLeg -6.783785 -0.000000 0.000000
RightFoot -12.162681 -15.649813 18.610819
RightToeBase 15.110528 -0.000000 -0.000000
LeftUpLeg 12.073692 -4.457470 -3.453270
LeftLeg -1.555652 -0.000000 0.000000
LeftFoot -9.605912 14.997242 -16.916069
LeftToeBase 9.777255 -0.000000 -0.000000
Spine 10.422093 -4.372280 -4.895059
RightShoulder -5.667010 -12.455820 -27.771993
RightArm 9.577068 27.071994 31.227479
RightForeArm 12.461218 0.000000 15.311940
RightHand 2.528414 0.000000 -7.857640
RightHandThumb1 -24.326973 -0.000000 -32.862282
LeftShoulder -25.806864 30.983756 15.628387
LeftArm 49.116233 -50.734956 -57.731527
LeftForeArm 36.399541 -0.000000 8.332761
LeftHand -22.663209 -0.000000 4.595188
LeftHandThumb1 -26.253704 0.000000 33.147579
Head -6.994294 12.515743 0.944526
1120
root 2.684944 37.310560 2.815716 -5.320304 -3.370294 3.067838
RightUpLeg 14.905384 0.406617 -4.135718
RightLeg -6.595049 -0.000000 0.000000
RightFoot -12.124886 -15.797610 18.576731
RightToeBase 14.915282 -0.000000 -0.000000
LeftUpLeg 12.039350 -4.094016 -3.302340
LeftLeg -1.508482 -0.000000 0.000000
LeftFoot -9.520220 14.741586 -16.932085
LeftToeBase 9.702127 -0.000000 -0.000000
Spine 10.369492 -4.267062 -4.621323
RightShoulder -5.698739 -12.307388 -27.938795
RightArm 9.493499 27.202944 31.259715
RightForeArm 12.205709 0.000000 15.264384
RightHand 2.464816 -0.000000 -7.788686
RightHandThumb1 -24.326973 -0.000000 -32.862282
LeftShoulder -25.876386 30.965989 15.479328
LeftArm 49.191421 -50.879233 -57.883987
LeftForeArm 36.241070 -0.000000 7.894109
LeftHand -22.671114 -0.000000 4.887302
LeftHandThumb1 -26.253704 0.000000 33.147579
Head -6.990950 12.600911 0.735385
1121
root 2.666505 37.319402 2.821240 -5.301996 -3.570439 3.010083
RightUpLeg 14.797877 0.869554 -3.980805
RightLeg -6.465331 -0.000000 0.000000
RightFoot -12.194910 -16.004950 18.693923
RightToeBase 14.956662 -0.000000 -0.000000
LeftUpLeg 12.015388 -3.667473 -3.148393
LeftLeg -1.471423 -0.000000 0.000000
LeftFoot -9.412602 14.505652 -16.879074
LeftToeBase 9.587527 -0.000000 -0.000000
Spine 10.316677 -4.131537 -4.379266
RightShoulder -5.723198 -12.178597 -28.053931
RightArm 9.441097 27.286575 31.228772
RightForeArm 11.992919 -0.000000 15.134648
RightHand 2.501662 -0.000000 -7.491272
RightHandThumb1 -24.326973 -0.000000 -32.862282
LeftShoulder -25.929037 30.952337 15.371652
LeftArm 49.150592 -51.011741 -57.950406
LeftForeArm 36.066258 -0.000000 7.538941
LeftHand -22.620857 -0.000000 5.148259
LeftHandThumb1 -26.253704 0.000000 33.147579
Head -6.947879 12.736877 0.636924
1122
root 2.648812 37.326731 2.827497 -5.285294 -3.759635 2.979409
RightUpLeg 14.728696 1.320636 -3.862674
RightLeg -6.390116 -0.000000 0.000000
RightFoot -12.201693 -16.189494 18.738475
RightToeBase 14.888604 -0.000000 -0.000000
LeftUpLeg 11.990387 -3.212936 -3.026262
LeftLeg -1.433845 -0.000000 0.000000
LeftFoot -9.314541 14.289228 -16.793153
LeftToeBase 9.575369 -0.000000 -0.000000
Spine 10.285781 -3.999578 -4.195867
RightShoulder -5.745004 -11.990759 -28.123565
RightArm 9.311731 27.266890 31.118597
RightForeArm 11.778654 -0.000000 15.008362
RightHand 2.509032 0.000000 -7.105675
RightHandThumb1 -24.326973 -0.000000 -32.862282
LeftShoulder -26.003411 30.887954 15.278092
LeftArm 49.046541 -51.107625 -57.918611
LeftForeArm 35.836325 -0.000000 7.194674
LeftHand -22.686539 -0.000000 5.474063
LeftHandThumb1 -26.253704 0.000000 33.147579
Head -6.983625 12.656492 0.540891
1123
root 2.633172 37.331936 2.833337 -5.262019 -3.917977 2.970718
RightUpLeg 14.684820 1.715824 -3.778444
RightLeg -6.372018 -0.000000 0.000000
RightFoot -12.209035 -16.344998 18.774319
RightToeBase 14.895999 -0.000000 -0.000000
LeftUpLeg 11.949669 -2.829013 -2.935340
LeftLeg -1.380806 -0.000000 0.000000
LeftFoot -9.243972 14.084722 -16.790354
LeftToeBase 9.492252 -0.000000 -0.000000
Spine 10.248448 -3.864915 -4.045394
RightShoulder -5.790680 -11.888979 -28.169754
RightArm 9.242768 27.256296 31.026107
RightForeArm 11.562457 -0.000000 14.869530
RightHand 2.443506 0.000000 -6.816836
RightHandThumb1 -24.326973 -0.000000 -32.862282
LeftShoulder -26.043475 30.826231 15.216083
LeftArm 48.908681 -51.184570 -57.824622
LeftForeArm 35.677381 -0.000000 6.865031
LeftHand -22.677948 -0.000000 5.664156
LeftHandThumb1 -26.253704 0.000000 33.147579
Head -7.026466 12.662371 0.494475
